<svg viewBox="0 0 16 16" fill="#615F65" xmlns="http://www.w3.org/2000/svg"
  id="Linkedin-Fill--Streamline-Remix-Fill" height="16" width="16">
  <desc>
    Linkedin Fill Streamline Icon: https://streamlinehq.com
  </desc>
  <path
    d="M4.626986666666666 3.3332866666666665c-0.0002466666666666666 0.5428733333333333 -0.3296 1.0313933333333334 -0.83276 1.2351999999999999 -0.5031599999999999 0.20381333333333332 -1.0796466666666666 0.08221333333333333 -1.4576266666666666 -0.3074533333333333 -0.37798 -0.3896733333333333 -0.48196666666666665 -0.9695999999999999 -0.2629333333333333 -1.4663199999999998 0.21904 -0.49671999999999994 0.71736 -0.8110466666666666 1.2599866666666666 -0.7947599999999999 0.7207133333333333 0.02163333333333333 1.29366 0.6122933333333334 1.2933333333333332 1.3333333333333333Zm0.039999999999999994 2.32h-2.6666666666666665V13.999933333333333h2.6666666666666665V5.653286666666666Zm4.213346666666666 0H6.226986666666666V13.999933333333333h2.62668v-4.38c0 -2.44 3.1799999999999997 -2.6666666666666665 3.1799999999999997 0v4.38h2.6333333333333333v-5.286666666666666c0 -4.113313333333333 -4.706666666666666 -3.95998 -5.8133333333333335 -1.94l0.026666666666666665 -1.11998Z"
    stroke-width="0.6667"></path>
</svg>